<svg width="19" height="18" viewBox="0 0 19 18" fill="none" xmlns="http://www.w3.org/2000/svg">
<path d="M4.65625 17.5V5.82031H1.02344V17.5H4.65625ZM2.82031 4.25781C3.99219 4.25781 4.92969 3.28125 4.92969 2.10938C4.92969 0.976562 3.99219 0.0390625 2.82031 0.0390625C1.6875 0.0390625 0.75 0.976562 0.75 2.10938C0.75 3.28125 1.6875 4.25781 2.82031 4.25781ZM18.2109 17.5H18.25V11.0938C18.25 7.96875 17.5469 5.54688 13.875 5.54688C12.1172 5.54688 10.9453 6.52344 10.4375 7.42188H10.3984V5.82031H6.92188V17.5H10.5547V11.7188C10.5547 10.1953 10.8281 8.75 12.7031 8.75C14.5781 8.75 14.6172 10.4688 14.6172 11.8359V17.5H18.2109Z" fill="white"/>
</svg>
