<svg width="80" height="80" viewBox="0 0 80 80" fill="none" xmlns="http://www.w3.org/2000/svg">
  <circle cx="40" cy="40" r="40" fill="#DADADA" />
  <g clip-path="url(#clip0_451_2917)">
    <path
      d="M57.6178 31.7532L11.584 57.8281L13.571 59.8948L15.2837 61.6783C15.2837 61.6783 26.7058 60.6427 35.5214 55.5534C42.9385 51.2695 67.1768 37.2762 67.1768 37.2762L67.4911 34.9926L57.6178 31.7576V31.7532Z"
      fill="#F7F7F7" />
    <path
      d="M35.7294 53.3407C42.2171 49.5923 62.508 37.8692 67.491 34.9882L68 33.426L57.6178 31.7532L11.584 57.8281L13.571 59.8948C15.2262 59.6116 17.3238 59.2487 18.293 59.0938C22.2317 58.4565 29.609 56.8766 35.7294 53.3451V53.3407Z"
      fill="#DADADA" />
    <path
      d="M11.584 57.8281C11.584 57.8281 21.1784 56.9563 30.0117 52.9866C30.3259 52.845 30.9499 52.5485 30.9499 52.5485L32.8042 53.7212L68 33.4216L65.3845 31.9125L62.7691 30.4034L57.609 27.425L22.4131 47.7247L20.8023 46.6803C20.8023 46.6803 20.2535 47.0697 19.9924 47.2645C13.1241 52.3538 11.584 57.8281 11.584 57.8281Z"
      fill="#06183D" />
    <path d="M22.4131 47.7248L32.8041 53.7258L67.9999 33.4261L57.6045 27.4252L22.4131 47.7248Z" fill="white" />
    <path d="M20.9655 49.8803L19.0537 48.7783L20.0317 48.2384L21.9435 49.3448L20.9655 49.8803Z" fill="white" />
    <path d="M19.0537 48.7779V49.4638L20.9655 50.5702V49.8798L19.0537 48.7779Z" fill="#F7F7F7" />
    <path d="M21.9448 49.3447L20.9668 49.8802V50.5706L21.9448 50.0307V49.3447Z" fill="#F7F7F7" />
    <path d="M26.4177 52.969L24.5059 51.8671L25.4839 51.3271L27.3957 52.4335L26.4177 52.969Z" fill="white" />
    <path d="M24.5059 51.8669V52.5529L26.4177 53.6593V52.9689L24.5059 51.8669Z" fill="#F7F7F7" />
    <path d="M27.396 52.4337L26.418 52.9692V53.6596L27.396 53.1197V52.4337Z" fill="#F7F7F7" />
    <path d="M63.0434 35.8735L53.3428 30.2708V25.2833L63.0434 30.886V35.8735Z" fill="white" />
    <path d="M63.0434 30.8858L53.3428 25.2831L57.6665 22.8314L67.3671 28.4341L63.0434 30.8858Z" fill="#F7F7F7" />
    <path d="M67.3676 28.4341L63.0439 30.8859V35.8734L67.3676 33.4217V28.4341Z" fill="#F7F7F7" />
    <path
      d="M62.207 23.9467V28.8988H62.2203C62.2867 29.3015 62.8841 29.6201 63.6188 29.6201C64.3534 29.6201 64.9508 29.3015 65.0172 28.8988H65.0305V23.9467H62.2115H62.207Z"
      fill="#06183D" />
    <path
      d="M63.6139 24.7387C64.3936 24.7387 65.0256 24.3841 65.0256 23.9466C65.0256 23.5091 64.3936 23.1544 63.6139 23.1544C62.8342 23.1544 62.2021 23.5091 62.2021 23.9466C62.2021 24.3841 62.8342 24.7387 63.6139 24.7387Z"
      fill="#DADADA" />
    <path
      d="M64.575 23.9466C64.575 24.2432 64.1457 24.4866 63.6146 24.4866C63.0836 24.4866 62.6543 24.2432 62.6543 23.9466C62.6543 23.6501 63.0836 23.4067 63.6146 23.4067C64.1457 23.4067 64.575 23.6501 64.575 23.9466Z"
      fill="#06183D" />
    <path
      d="M58.9502 22.0482V27.0003H58.9635C59.0299 27.403 59.6273 27.7217 60.3619 27.7217C61.0966 27.7217 61.694 27.403 61.7604 27.0003H61.7737V22.0482H58.9546H58.9502Z"
      fill="#06183D" />
    <path
      d="M61.7688 22.0481C61.7688 22.4863 61.1359 22.8403 60.357 22.8403C59.5782 22.8403 58.9453 22.4863 58.9453 22.0481C58.9453 21.61 59.5782 21.256 60.357 21.256C61.1359 21.256 61.7688 21.61 61.7688 22.0481Z"
      fill="#DADADA" />
    <path
      d="M61.322 22.0483C61.322 22.3448 60.8928 22.5882 60.3617 22.5882C59.8306 22.5882 59.4014 22.3448 59.4014 22.0483C59.4014 21.7518 59.8306 21.5084 60.3617 21.5084C60.8928 21.5084 61.322 21.7518 61.322 22.0483Z"
      fill="#06183D" />
    <path
      d="M55.6797 20.1454V25.0976H55.693C55.7593 25.5003 56.3568 25.8189 57.0914 25.8189C57.826 25.8189 58.4235 25.5003 58.4899 25.0976H58.5031V20.1454H55.6841H55.6797Z"
      fill="#06183D" />
    <path
      d="M58.5031 20.1454C58.5031 20.5836 57.8703 20.9376 57.0914 20.9376C56.3125 20.9376 55.6797 20.5836 55.6797 20.1454C55.6797 19.7073 56.3125 19.3533 57.0914 19.3533C57.8703 19.3533 58.5031 19.7073 58.5031 20.1454Z"
      fill="#DADADA" />
    <path
      d="M58.0515 20.1451C58.0515 20.4416 57.6222 20.685 57.0912 20.685C56.5601 20.685 56.1309 20.4416 56.1309 20.1451C56.1309 19.8486 56.5601 19.6052 57.0912 19.6052C57.6222 19.6052 58.0515 19.8486 58.0515 20.1451Z"
      fill="#06183D" />
    <path d="M59.5116 27.5756V34.2359L57.082 35.6388V28.9784L59.5116 27.5756Z" fill="#DADADA" />
    <path d="M60.835 31.4034V27.7568L63.7735 26.0619V29.7129L60.835 31.4034Z" fill="#F7F7F7" />
    <path d="M60.8354 27.7571L51.1348 22.1544L54.0733 20.4639L63.7739 26.0621L60.8354 27.7571Z" fill="white" />
    <path d="M51.1348 22.1545V25.8056L60.8354 31.4038V27.7572L51.1348 22.1545Z" fill="#F7F7F7" />
    <path d="M54.6533 27.5756V34.2359L57.0829 35.6388V28.9784L54.6533 27.5756Z" fill="#F7F7F7" />
    <path
      d="M53.7363 18.3794V21.34C53.7363 21.3754 53.7939 21.4064 53.8602 21.4064C53.9266 21.4064 53.9842 21.3754 53.9842 21.34V18.3794H53.7363Z"
      fill="#F7F7F7" />
    <path
      d="M53.8602 18.313C53.7939 18.313 53.7363 18.344 53.7363 18.3794C53.7363 18.4148 53.7939 18.4458 53.8602 18.4458C53.9266 18.4458 53.9842 18.4148 53.9842 18.3794C53.9842 18.344 53.9266 18.313 53.8602 18.313Z"
      fill="#F7F7F7" />
    <path
      d="M59.6182 21.5748V24.5354C59.6182 24.5708 59.6757 24.6018 59.7421 24.6018C59.8085 24.6018 59.866 24.5708 59.866 24.5354V21.5748H59.6182Z"
      fill="#F7F7F7" />
    <path
      d="M59.7421 21.5084C59.6757 21.5084 59.6182 21.5393 59.6182 21.5747C59.6182 21.6101 59.6757 21.6411 59.7421 21.6411C59.8085 21.6411 59.866 21.6101 59.866 21.5747C59.866 21.5393 59.8085 21.5084 59.7421 21.5084Z"
      fill="#F7F7F7" />
    <path
      d="M60.707 22.1368V25.0975C60.707 25.1329 60.7646 25.1639 60.8309 25.1639C60.8973 25.1639 60.9549 25.1329 60.9549 25.0975V22.1368H60.707Z"
      fill="#F7F7F7" />
    <path
      d="M60.8309 22.0704C60.7646 22.0704 60.707 22.1014 60.707 22.1368C60.707 22.1722 60.7646 22.2032 60.8309 22.2032C60.8973 22.2032 60.9549 22.1722 60.9549 22.1368C60.9549 22.1014 60.8973 22.0704 60.8309 22.0704Z"
      fill="#F7F7F7" />
    <path d="M55.0166 23.2035L53.6934 22.4379L54.3705 22.0706L55.6893 22.8317L55.0166 23.2035Z" fill="white" />
    <path d="M53.6934 22.4377V22.9157L55.0166 23.6769V23.2034L53.6934 22.4377Z" fill="#F7F7F7" />
    <path d="M55.6883 22.8314L55.0156 23.2032V23.6767L55.6883 23.3049V22.8314Z" fill="#F7F7F7" />
    <path d="M57.1801 24.4642L55.8613 23.703L56.534 23.3313L57.8572 24.0925L57.1801 24.4642Z" fill="white" />
    <path d="M55.8613 23.7034V24.1769L57.1801 24.9381V24.4646L55.8613 23.7034Z" fill="#F7F7F7" />
    <path d="M57.8568 24.0927L57.1797 24.4645V24.938L57.8568 24.5707V24.0927Z" fill="#F7F7F7" />
    <path d="M52.0282 34.8513L45.9564 38.3563L43.3232 36.8384L49.395 33.3334L52.0282 34.8513Z" fill="#DADADA" />
    <path d="M52.0282 31.8729L45.9564 35.3779L43.3232 33.8555L49.395 30.3505L52.0282 31.8729Z" fill="#DADADA" />
    <path d="M45.9564 38.3563V35.378L43.3232 33.8556V36.8384L45.9564 38.3563Z" fill="#DADADA" />
    <path d="M45.8148 38.0818V35.5017L43.4648 34.1431V36.7276L45.8148 38.0818Z" fill="#DADADA" />
    <path d="M52.0288 31.8728V34.8511L45.957 38.3561V35.3778L52.0288 31.8728Z" fill="#DADADA" />
    <path d="M54.9676 36.6036L48.8959 40.1086L46.2627 38.5907L52.3389 35.0857L54.9676 36.6036Z" fill="#DADADA" />
    <path d="M54.9676 33.6253L48.8959 37.1302L46.2627 35.6079L52.3389 32.1029L54.9676 33.6253Z" fill="#DADADA" />
    <path d="M48.8959 40.1087V37.1303L46.2627 35.608V38.5907L48.8959 40.1087Z" fill="#DADADA" />
    <path d="M48.7537 39.8344V37.2543L46.4082 35.9001V38.4802L48.7537 39.8344Z" fill="#DADADA" />
    <path d="M54.9673 33.6251V36.6035L48.8955 40.1084V37.1301L54.9673 33.6251Z" fill="#DADADA" />
    <path d="M57.9412 38.3561L51.8695 41.8611L49.2363 40.3431L55.3081 36.8381L57.9412 38.3561Z" fill="#DADADA" />
    <path d="M57.9412 35.3781L51.8695 38.8831L49.2363 37.3651L55.3081 33.8557L57.9412 35.3781Z" fill="#DADADA" />
    <path d="M51.8695 41.8608V38.8824L49.2363 37.3645V40.3428L51.8695 41.8608Z" fill="#DADADA" />
    <path d="M51.7234 41.5867V39.0067L49.3779 37.6525V40.2325L51.7234 41.5867Z" fill="#DADADA" />
    <path d="M57.9409 35.3779V38.3563L51.8691 41.8613V38.8829L57.9409 35.3779Z" fill="#F7F7F7" />
    <path d="M52.0282 31.8729L45.9564 35.3779L43.3232 33.8555L49.395 30.3505L52.0282 31.8729Z" fill="#DADADA" />
    <path d="M52.0282 28.8899L45.9564 32.3949L43.3232 30.877L49.395 27.372L52.0282 28.8899Z" fill="#06183D" />
    <path d="M45.9564 35.3778V32.395L43.3232 30.8771V33.8554L45.9564 35.3778Z" fill="#DADADA" />
    <path d="M45.8148 35.0989V32.5188L43.4648 31.1646V33.7447L45.8148 35.0989Z" fill="#DADADA" />
    <path d="M52.0288 28.89V31.8728L45.957 35.3778V32.395L52.0288 28.89Z" fill="#DADADA" />
    <path d="M54.9676 33.6298L48.8959 37.1348L46.2627 35.6169L52.3389 32.1119L54.9676 33.6298Z" fill="#DADADA" />
    <path d="M54.9676 30.6514L48.8959 34.1564L46.2627 32.634L52.3389 29.129L54.9676 30.6514Z" fill="#06183D" />
    <path d="M48.8959 37.1344V34.1561L46.2627 32.6337V35.6165L48.8959 37.1344Z" fill="#DADADA" />
    <path d="M48.7537 36.8603V34.2803L46.4082 32.9216V35.5061L48.7537 36.8603Z" fill="#DADADA" />
    <path d="M54.9673 30.6513V33.6297L48.8955 37.1346V34.1563L54.9673 30.6513Z" fill="#DADADA" />
    <path d="M57.9412 35.3781L51.8695 38.8831L49.2363 37.3651L55.3081 33.8557L57.9412 35.3781Z" fill="#DADADA" />
    <path d="M57.9412 32.3951L51.8695 35.9001L49.2363 34.3822L55.3081 30.8772L57.9412 32.3951Z" fill="#06183D" />
    <path d="M51.8695 38.8828V35.9L49.2363 34.3821V37.3649L51.8695 38.8828Z" fill="#DADADA" />
    <path d="M51.7234 38.6084V36.0239L49.3779 34.6697V37.2497L51.7234 38.6084Z" fill="#DADADA" />
    <path d="M57.9409 32.395V35.3778L51.8691 38.8828V35.9L57.9409 32.395Z" fill="#F7F7F7" />
    <path d="M45.6952 38.5907L39.6234 42.0957L36.9902 40.5777L43.062 37.0728L45.6952 38.5907Z" fill="#DADADA" />
    <path d="M45.6952 35.6125L39.6234 39.1174L36.9902 37.5951L43.062 34.0901L45.6952 35.6125Z" fill="#DADADA" />
    <path d="M39.6234 42.0954V39.1171L36.9902 37.5947V40.5775L39.6234 42.0954Z" fill="#DADADA" />
    <path d="M39.4827 41.8211V39.241L37.1328 37.8868V40.4669L39.4827 41.8211Z" fill="#DADADA" />
    <path d="M45.6958 35.6122V38.5906L39.624 42.0956V39.1172L45.6958 35.6122Z" fill="#DADADA" />
    <path d="M48.6336 40.3431L42.5619 43.8481L39.9287 42.3301L46.0005 38.8251L48.6336 40.3431Z" fill="#DADADA" />
    <path d="M48.6336 37.3647L42.5619 40.8697L39.9287 39.3518L46.0005 35.8423L48.6336 37.3647Z" fill="#DADADA" />
    <path d="M42.5619 43.848V40.8696L39.9287 39.3517V42.33L42.5619 43.848Z" fill="#DADADA" />
    <path d="M42.4212 43.5738V40.9938L40.0713 39.6396V42.2196L42.4212 43.5738Z" fill="#DADADA" />
    <path d="M48.6343 37.3646V40.343L42.5625 43.8479V40.8696L48.6343 37.3646Z" fill="#DADADA" />
    <path d="M51.6038 42.0958L45.5321 45.6052L42.9033 44.0829L48.9751 40.5779L51.6038 42.0958Z" fill="#DADADA" />
    <path d="M51.6038 39.117L45.5321 42.622L42.9033 41.1041L48.9751 37.5947L51.6038 39.117Z" fill="#DADADA" />
    <path d="M45.5321 45.6051V42.6224L42.9033 41.1044V44.0828L45.5321 45.6051Z" fill="#DADADA" />
    <path d="M45.3904 45.3261V42.746L43.0449 41.3918V43.9719L45.3904 45.3261Z" fill="#DADADA" />
    <path d="M51.604 39.1173V42.0957L45.5322 45.6051V42.6223L51.604 39.1173Z" fill="#F7F7F7" />
    <path d="M45.6952 35.6125L39.6234 39.1174L36.9902 37.5951L43.062 34.0901L45.6952 35.6125Z" fill="#DADADA" />
    <path d="M45.6952 32.6295L39.6234 36.1345L36.9902 34.6166L43.062 31.1116L45.6952 32.6295Z" fill="#06183D" />
    <path d="M39.6234 39.1172V36.1344L36.9902 34.6165V37.5948L39.6234 39.1172Z" fill="#DADADA" />
    <path d="M39.4827 38.8431V36.2586L37.1328 34.9044V37.4845L39.4827 38.8431Z" fill="#DADADA" />
    <path d="M45.6958 32.6295V35.6122L39.624 39.1172V36.1344L45.6958 32.6295Z" fill="#DADADA" />
    <path d="M48.6336 37.3693L42.5619 40.8742L39.9287 39.3563L46.0005 35.8513L48.6336 37.3693Z" fill="#DADADA" />
    <path d="M48.6336 34.3909L42.5619 37.8959L39.9287 36.3779L46.0005 32.8685L48.6336 34.3909Z" fill="#06183D" />
    <path d="M42.5619 40.8742V37.8958L39.9287 36.3779V39.3562L42.5619 40.8742Z" fill="#DADADA" />
    <path d="M42.4212 40.6V38.02L40.0713 36.6658V39.2458L42.4212 40.6Z" fill="#DADADA" />
    <path d="M48.6343 34.3907V37.3691L42.5625 40.8741V37.8957L48.6343 34.3907Z" fill="#DADADA" />
    <path d="M51.6038 39.117L45.5321 42.622L42.9033 41.1041L48.9751 37.5947L51.6038 39.117Z" fill="#DADADA" />
    <path d="M51.6038 36.1345L45.5321 39.6439L42.9033 38.1216L48.9751 34.6166L51.6038 36.1345Z" fill="#06183D" />
    <path d="M45.5321 42.6224V39.644L42.9033 38.1216V41.1044L45.5321 42.6224Z" fill="#DADADA" />
    <path d="M45.3904 42.3479V39.7678L43.0449 38.4092V40.9892L45.3904 42.3479Z" fill="#DADADA" />
    <path d="M51.604 36.1345V39.1173L45.5322 42.6223V39.6439L51.604 36.1345Z" fill="#F7F7F7" />
    <path d="M39.3494 42.3302L33.2777 45.8352L30.6445 44.3172L36.7207 40.8123L39.3494 42.3302Z" fill="#DADADA" />
    <path d="M39.3494 39.3518L33.2777 42.8568L30.6445 41.3389L36.7207 37.8295L39.3494 39.3518Z" fill="#DADADA" />
    <path d="M33.2777 45.8351V42.8567L30.6445 41.3388V44.3172L33.2777 45.8351Z" fill="#DADADA" />
    <path d="M33.1365 45.561V42.9809L30.791 41.6267V44.2068L33.1365 45.561Z" fill="#DADADA" />
    <path d="M39.3491 39.3517V42.33L33.2773 45.835V42.8567L39.3491 39.3517Z" fill="#DADADA" />
    <path d="M42.2928 44.0826L36.221 47.592L33.5879 46.0697L39.6596 42.5647L42.2928 44.0826Z" fill="#DADADA" />
    <path d="M42.2928 41.1044L36.221 44.6093L33.5879 43.0914L39.6596 39.5864L42.2928 41.1044Z" fill="#DADADA" />
    <path d="M36.221 47.5923V44.6095L33.5879 43.0916V46.0699L36.221 47.5923Z" fill="#DADADA" />
    <path d="M36.074 47.3134V44.7333L33.7285 43.3792V45.9592L36.074 47.3134Z" fill="#DADADA" />
    <path d="M42.2925 41.1045V44.0828L36.2207 47.5922V44.6095L42.2925 41.1045Z" fill="#DADADA" />
    <path d="M45.2616 45.8348L39.1898 49.3442L36.5566 47.8219L42.6284 44.3169L45.2616 45.8348Z" fill="#DADADA" />
    <path d="M45.2616 42.8568L39.1898 46.3618L36.5566 44.8438L42.6284 41.3389L45.2616 42.8568Z" fill="#DADADA" />
    <path d="M39.1898 49.3447V46.3619L36.5566 44.844V47.8223L39.1898 49.3447Z" fill="#DADADA" />
    <path d="M39.0482 49.0657V46.4856L36.6982 45.1314V47.7115L39.0482 49.0657Z" fill="#DADADA" />
    <path d="M45.2612 42.8567V45.835L39.1895 49.3444V46.3617L45.2612 42.8567Z" fill="#F7F7F7" />
    <path d="M39.3494 39.3518L33.2777 42.8568L30.6445 41.3389L36.7207 37.8295L39.3494 39.3518Z" fill="#DADADA" />
    <path d="M39.3494 36.3693L33.2777 39.8787L30.6445 38.3563L36.7207 34.8513L39.3494 36.3693Z" fill="#06183D" />
    <path d="M33.2777 42.8567V39.8784L30.6445 38.356V41.3388L33.2777 42.8567Z" fill="#DADADA" />
    <path d="M33.1365 42.5825V40.0024L30.791 38.6438V41.2239L33.1365 42.5825Z" fill="#DADADA" />
    <path d="M39.3491 36.3689V39.3517L33.2773 42.8566V39.8783L39.3491 36.3689Z" fill="#DADADA" />
    <path d="M42.2928 41.1088L36.221 44.6182L33.5879 43.0958L39.6596 39.5908L42.2928 41.1088Z" fill="#DADADA" />
    <path d="M42.2928 38.1303L36.221 41.6353L33.5879 40.1173L39.6596 36.6079L42.2928 38.1303Z" fill="#06183D" />
    <path d="M36.221 44.6181V41.6354L33.5879 40.1174V43.0958L36.221 44.6181Z" fill="#DADADA" />
    <path d="M36.074 44.3395V41.7595L33.7285 40.4053V42.9853L36.074 44.3395Z" fill="#DADADA" />
    <path d="M42.2925 38.1301V41.1085L36.2207 44.6179V41.6351L42.2925 38.1301Z" fill="#DADADA" />
    <path d="M45.2616 42.8568L39.1898 46.3618L36.5566 44.8438L42.6284 41.3389L45.2616 42.8568Z" fill="#DADADA" />
    <path d="M45.2616 39.8783L39.1898 43.3833L36.5566 41.8609L42.6284 38.356L45.2616 39.8783Z" fill="#06183D" />
    <path d="M39.1898 46.3618V43.3834L36.5566 41.8611V44.8439L39.1898 46.3618Z" fill="#DADADA" />
    <path d="M39.0482 46.0872V43.5072L36.6982 42.1486V44.733L39.0482 46.0872Z" fill="#DADADA" />
    <path d="M45.2612 39.8787V42.857L39.1895 46.362V43.3836L45.2612 39.8787Z" fill="#F7F7F7" />
    <path d="M32.9588 46.0431L26.8871 49.5525L24.2539 48.0301L30.3301 44.5251L32.9588 46.0431Z" fill="#DADADA" />
    <path d="M32.9588 43.0649L26.8871 46.5699L24.2539 45.052L30.3301 41.547L32.9588 43.0649Z" fill="#DADADA" />
    <path d="M26.8871 49.5524V46.5696L24.2539 45.0517V48.03L26.8871 49.5524Z" fill="#DADADA" />
    <path d="M26.7459 49.2738V46.6938L24.4004 45.3396V47.9197L26.7459 49.2738Z" fill="#F7F7F7" />
    <path d="M32.9595 43.065V46.0433L26.8877 49.5528V46.57L32.9595 43.065Z" fill="#DADADA" />
    <path d="M35.9022 47.8002L29.8304 51.3052L27.1973 49.7828L33.269 46.2778L35.9022 47.8002Z" fill="#DADADA" />
    <path d="M35.9022 44.8173L29.8304 48.3222L27.1973 46.8043L33.269 43.2993L35.9022 44.8173Z" fill="#DADADA" />
    <path d="M29.8304 51.3052V48.3224L27.1973 46.8044V49.7828L29.8304 51.3052Z" fill="#DADADA" />
    <path d="M29.6834 51.0263V48.4462L27.3379 47.092V49.6721L29.6834 51.0263Z" fill="#F7F7F7" />
    <path d="M35.9018 44.8174V47.8002L29.8301 51.3051V48.3224L35.9018 44.8174Z" fill="#DADADA" />
    <path d="M38.8709 49.5526L32.7992 53.0576L30.166 51.5353L36.2378 48.0303L38.8709 49.5526Z" fill="#DADADA" />
    <path d="M38.8709 46.5697L32.7992 50.0747L30.166 48.5567L36.2378 45.0518L38.8709 46.5697Z" fill="#DADADA" />
    <path d="M32.7992 53.0576V50.0748L30.166 48.5569V51.5352L32.7992 53.0576Z" fill="#DADADA" />
    <path d="M32.6575 52.7789V50.1989L30.3076 48.8447V51.4247L32.6575 52.7789Z" fill="#F7F7F7" />
    <path d="M38.8716 46.5697V49.5525L32.7998 53.0575V50.0747L38.8716 46.5697Z" fill="#F7F7F7" />
    <path d="M32.9588 43.0649L26.8871 46.5699L24.2539 45.052L30.3301 41.547L32.9588 43.0649Z" fill="#DADADA" />
    <path d="M32.9588 40.0818L26.8871 43.5912L24.2539 42.0688L30.3301 38.5638L32.9588 40.0818Z" fill="#06183D" />
    <path d="M26.8871 46.57V43.5916L24.2539 42.0693V45.052L26.8871 46.57Z" fill="#DADADA" />
    <path d="M26.7459 46.2954V43.7153L24.4004 42.3567V44.9412L26.7459 46.2954Z" fill="#F7F7F7" />
    <path d="M32.9595 40.0822V43.0649L26.8877 46.5699V43.5916L32.9595 40.0822Z" fill="#DADADA" />
    <path d="M35.9022 44.8219L29.8304 48.3313L27.1973 46.8089L33.269 43.304L35.9022 44.8219Z" fill="#DADADA" />
    <path d="M35.9022 41.8434L29.8304 45.3484L27.1973 43.8304L33.269 40.3254L35.9022 41.8434Z" fill="#06183D" />
    <path d="M29.8304 48.3313V45.3485L27.1973 43.8306V46.8089L29.8304 48.3313Z" fill="#DADADA" />
    <path d="M29.6834 48.0524V45.4724L27.3379 44.1182V46.6982L29.6834 48.0524Z" fill="#F7F7F7" />
    <path d="M35.9018 41.8435V44.8219L29.8301 48.3313V45.3485L35.9018 41.8435Z" fill="#DADADA" />
    <path d="M38.8709 46.5697L32.7992 50.0747L30.166 48.5567L36.2378 45.0518L38.8709 46.5697Z" fill="#DADADA" />
    <path d="M38.8709 43.5917L32.7992 47.0967L30.166 45.5743L36.2378 42.0693L38.8709 43.5917Z" fill="#06183D" />
    <path d="M32.7992 50.0747V47.0963L30.166 45.574V48.5567L32.7992 50.0747Z" fill="#DADADA" />
    <path d="M32.6575 49.8004V47.2203L30.3076 45.8661V48.4462L32.6575 49.8004Z" fill="#F7F7F7" />
    <path d="M38.8716 43.5916V46.5699L32.7998 50.0749V47.0965L38.8716 43.5916Z" fill="#F7F7F7" />
  </g>
  <defs>
    <clipPath id="clip0_451_2917">
      <rect width="56.416" height="43.3653" fill="white" transform="translate(11.584 18.3132)" />
    </clipPath>
  </defs>
</svg>
