<svg width="201" height="77" viewBox="0 0 201 77" fill="none" xmlns="http://www.w3.org/2000/svg">
<g clip-path="url(#clip0_285:969)">
<path d="M12.238 62.9414C9.74206 65.563 7.57458 68.1203 5.71191 70.4642H13.5385V70.3761C12.2651 69.1669 12.238 67.8663 12.238 66.149V62.9414Z" fill="white"/>
<path d="M18.5069 51.0146H12.2077V51.1061C12.501 51.2407 12.7461 51.4617 12.9102 51.7396C13.0742 52.0175 13.1494 52.339 13.1255 52.6608C13.1255 53.284 12.7123 54.1681 12.4482 54.6931L10.7887 58.0802L7.35801 51.1061V51.0146H0.5V51.1061C1.38731 51.6379 1.85467 52.4372 2.36267 53.3822L6.76535 61.657V66.2092C6.76535 66.3854 6.76535 66.5683 6.76535 66.7478C8.94975 63.5774 12.1264 59.794 15.2015 56.4645L18.5036 51.1061L18.5069 51.0146Z" fill="white"/>
<path d="M31.1801 67.2263V56.4248H31.092C30.4775 56.7583 29.7815 56.912 29.0837 56.8685H25.0197V56.9566C26.1136 57.8745 26.0357 58.7314 26.0357 60.1201V64.9095C26.0357 65.6784 26.0967 66.4473 25.6225 67.1552C25.4608 67.3677 25.2501 67.5379 25.0082 67.6511C24.7664 67.7644 24.5008 67.8173 24.234 67.8055C22.2833 67.8055 22.5779 65.3227 22.5779 64.0221V56.4248H22.5136C21.91 56.7614 21.2218 56.9155 20.5324 56.8685H18.7882C18.287 57.3021 17.7993 57.7322 17.3252 58.159C17.4833 58.7999 17.5393 59.4618 17.4911 60.1201V65.8715C17.4911 67.3516 17.4911 68.7099 18.6731 69.7463C19.6196 70.5014 20.802 70.8984 22.0124 70.8674C23.7565 70.8674 25.0874 70.2476 26.0764 68.9165V70.4847H32.1859V70.3966C31.092 69.4618 31.2106 68.6049 31.1801 67.2263Z" fill="white"/>
<path d="M44.3337 62.545C43.3889 61.9217 42.1764 61.6 41.113 61.2748C40.4018 61.0682 39.4197 60.8277 39.4197 59.9199C39.4197 59.124 40.5711 58.9749 41.1638 58.9749C42.5097 58.984 43.824 59.3841 44.9467 60.1266V57.0511C43.4458 56.69 41.9083 56.5025 40.3646 56.4922C38.827 56.4922 37.2319 56.6378 35.8738 57.4372C34.5158 58.2366 33.6894 59.4085 33.6894 61.0072C33.6894 64.9972 40.754 65.1158 40.754 67.104C40.754 68.1981 39.484 68.4047 38.6543 68.4047C36.7916 68.4047 34.9899 67.7273 33.4219 66.7789L34.0721 70.166C35.6994 70.5677 37.3649 70.7948 39.0404 70.8434C42.173 70.8434 46.5757 69.956 46.5757 65.9964C46.5791 64.4959 45.5733 63.3409 44.3337 62.545Z" fill="white"/>
<path d="M52.7563 63.727H61.9206C61.8325 59.1747 59.5838 56.4854 54.9136 56.4854C50.8055 56.4854 47.6729 59.4694 47.6729 63.5983C47.6729 65.8168 48.4721 68.032 50.3619 69.3936C52.018 70.6028 54.2633 70.8399 56.275 70.8399C57.8673 70.8499 59.4453 70.5388 60.9148 69.9254L62.0662 66.5857C60.5896 67.3546 58.7574 68.093 57.1014 68.093C54.4699 68.1031 52.7563 66.2673 52.7563 63.727ZM54.9136 59.0562C56.3326 59.0562 56.8948 60.0723 56.8948 61.2138H52.7563C52.9053 60.0317 53.6131 59.0562 54.9136 59.0562Z" fill="white"/>
<path d="M77.6722 67.2263V62.3489C77.6722 60.7806 77.7603 59.4495 76.6562 58.1793C75.5522 56.9092 74.0824 56.4858 72.4872 56.4858C70.9802 56.4858 69.7102 56.9566 68.8533 58.0506V56.4248H68.7619C68.1028 56.7207 67.388 56.872 66.6655 56.8685H62.7031V56.9566C63.8275 57.905 63.7191 58.7585 63.7191 60.1201V67.2263C63.7191 68.615 63.8106 69.4719 62.7031 70.3899V70.4779H69.8863V70.3899C68.7619 69.4719 68.8703 68.615 68.8703 67.2263V62.2201C68.8703 61.5698 68.8398 60.7434 69.2834 60.1879C69.4384 59.9812 69.6386 59.8127 69.8687 59.6952C70.0988 59.5778 70.3527 59.5146 70.611 59.5105C70.9171 59.5044 71.2196 59.5776 71.489 59.723C71.7584 59.8684 71.9856 60.0811 72.1486 60.3403C72.5651 60.8992 72.5651 61.58 72.5651 62.2303V67.2263C72.5651 68.615 72.6532 69.4719 71.5288 70.3899V70.4779H78.7119V70.3899C77.5842 69.4618 77.6722 68.6048 77.6722 67.2263Z" fill="white"/>
<path d="M92.6787 67.0359V55.181C92.6787 53.6161 92.4721 51.9327 93.9182 51.0148V50.9268H85.9697V51.0148C87.4158 51.9327 87.2093 53.6161 87.2093 55.1539V66.1789C87.2093 67.7167 87.4158 69.373 85.9697 70.2875V70.379H98.856L99.977 66.2399C98.6765 67.2154 97.4065 67.5405 95.7809 67.5405C94.7175 67.5405 93.6338 67.4796 92.6787 67.0359Z" fill="white"/>
<path d="M113.1 58.0803C111.654 56.8406 109.822 56.3867 107.928 56.3867C103.495 56.3867 100.244 59.1675 100.244 63.6893C100.244 68.0655 103.465 70.7549 107.695 70.7549C112.189 70.7549 115.559 68.0655 115.559 63.3947C115.555 62.3842 115.333 61.3864 114.909 60.4693C114.484 59.5522 113.868 58.7374 113.1 58.0803ZM108.047 68.0113C105.446 68.0113 105.209 64.9087 105.209 62.9306C105.209 61.1863 105.71 59.2387 107.81 59.2387C110.204 59.2387 110.587 62.1922 110.587 64.0247C110.587 65.7656 110.292 68.0113 108.047 68.0113Z" fill="white"/>
<path d="M129.061 68.1911C127.998 67.5983 126.521 67.3917 125.309 67.3917L122.261 67.5712C122.051 67.5712 121.787 67.4527 121.787 67.2156C121.787 66.6533 122.881 66.5653 123.263 66.5653C124.686 66.5653 126.457 66.1215 127.639 65.2341C128.733 64.4077 129.502 63.2831 129.502 61.847C129.506 61.3658 129.411 60.8888 129.223 60.4458C129.035 60.0029 128.757 59.6036 128.408 59.2728H129.762L131.09 56.5259L124.825 56.702C124.071 56.501 123.297 56.3873 122.518 56.3633C119.416 56.3633 116.314 58.1415 116.314 61.5693C116.314 63.8725 117.79 65.3222 119.829 66.0606L119.003 66.3993C118.664 66.5178 117.878 66.694 117.878 67.1986C117.878 67.7033 118.441 68.6178 118.735 68.9701C118.923 69.2417 119.177 69.4606 119.474 69.6059C119.77 69.7512 120.099 69.818 120.429 69.7999C121.228 69.7999 122.027 69.6509 122.823 69.6509C123.619 69.6509 124.391 69.739 124.923 70.3283C125.333 70.7253 125.602 71.2448 125.691 71.8085C125.868 73.5021 123.917 73.9932 122.501 73.9932C121.377 73.9932 119.751 73.7561 119.751 72.3369C119.751 71.6019 120.195 71.2158 120.872 71.0972C120.191 70.7381 119.427 70.5641 118.657 70.5925C117.15 70.5925 115.609 71.5104 115.609 73.1667C115.609 74.7621 117.147 75.6495 118.505 76.0322C119.91 76.3597 121.35 76.5099 122.793 76.4793C124.486 76.4793 126.633 76.3269 128.211 75.68C129.867 74.9687 131.195 73.58 131.195 71.6866C131.18 70.9672 130.975 70.2646 130.6 69.6504C130.226 69.0363 129.694 68.5327 129.061 68.1911ZM122.759 59.0255C124.178 59.0255 124.56 60.6514 124.56 61.8064C124.56 62.9004 124.09 63.9335 122.816 63.9335C121.462 63.9335 121.045 62.3957 121.045 61.3017C121.045 60.2077 121.465 59.0255 122.759 59.0255Z" fill="white"/>
<path d="M135.74 56.1873C136.12 56.1932 136.497 56.1233 136.849 55.9818C137.201 55.8403 137.521 55.63 137.791 55.3632C138.061 55.0964 138.275 54.7784 138.421 54.4279C138.567 54.0774 138.641 53.7014 138.639 53.3218C138.636 52.5854 138.342 51.8802 137.821 51.3594C137.3 50.8387 136.595 50.5446 135.859 50.541C135.481 50.5444 135.107 50.6234 134.76 50.7734C134.413 50.9234 134.1 51.1413 133.838 51.4143C133.576 51.6873 133.372 52.0099 133.237 52.3631C133.102 52.7163 133.039 53.0929 133.051 53.4709C133.068 54.1814 133.356 54.8585 133.856 55.3635C134.356 55.8686 135.03 56.1633 135.74 56.1873Z" fill="white"/>
<path d="M138.578 67.1273V56.3359H138.49C137.877 56.6759 137.178 56.8301 136.478 56.7796H132.458V56.8677C133.552 57.7856 133.474 58.6426 133.474 60.0313V67.1442C133.474 68.4991 133.562 69.3628 132.441 70.3044V70.3958H139.625V70.2739C138.49 69.3458 138.578 68.4855 138.578 67.1273Z" fill="white"/>
<path d="M151.257 62.4564C150.312 61.8332 149.1 61.5114 148.037 61.1829C147.325 60.9796 146.343 60.7425 146.343 59.828C146.343 59.0287 147.495 58.8796 148.087 58.8796C149.438 58.8852 150.758 59.2855 151.884 60.0313V56.9591C150.383 56.5921 148.844 56.4 147.298 56.3867C145.761 56.3867 144.166 56.5358 142.804 57.3351C141.443 58.1345 140.616 59.3166 140.616 60.9119C140.616 64.9019 147.681 65.0205 147.681 67.0087C147.681 68.1061 146.411 68.3127 145.585 68.3127C143.731 68.2499 141.929 67.687 140.369 66.6835L141.019 70.0707C142.646 70.4708 144.31 70.6979 145.984 70.7481C149.117 70.7481 153.523 69.864 153.523 65.9011C153.506 64.4074 152.5 63.2524 151.257 62.4564Z" fill="white"/>
<path d="M160.599 52.5527H158.567C158.329 55.0355 156.26 57.254 153.717 57.4607V59.4929H155.491V65.7896C155.491 67.1783 155.434 68.5975 156.555 69.6035C157.503 70.4299 159.037 70.7551 160.25 70.7551C161.018 70.7551 161.818 70.606 162.587 70.5485L163.887 68.0352C163.088 68.0047 162.231 67.9777 161.516 67.5035C160.568 66.8802 160.599 66.1147 160.599 65.0512V59.5302H161.337C162.58 59.5302 162.993 59.4692 163.792 60.3837H163.88V56.7799H160.599V52.5527Z" fill="white"/>
<path d="M168.55 56.1873C168.929 56.1927 169.306 56.1225 169.658 55.9808C170.009 55.8391 170.329 55.6287 170.599 55.362C170.869 55.0952 171.082 54.7774 171.228 54.4271C171.373 54.0768 171.447 53.7011 171.446 53.3218C171.442 52.586 171.149 51.8813 170.629 51.3606C170.109 50.84 169.405 50.5455 168.669 50.541C168.291 50.5444 167.917 50.6234 167.57 50.7734C167.222 50.9233 166.909 51.1412 166.647 51.4141C166.385 51.6871 166.18 52.0096 166.045 52.3628C165.909 52.716 165.846 53.0928 165.858 53.4709C165.876 54.1817 166.164 54.8588 166.665 55.3638C167.165 55.8688 167.84 56.1634 168.55 56.1873Z" fill="white"/>
<path d="M171.385 67.1273V56.3359H171.297C170.685 56.6762 169.987 56.8304 169.288 56.7796H165.268V56.8677C166.362 57.7856 166.284 58.6426 166.284 60.0313V67.1442C166.284 68.4991 166.372 69.3628 165.248 70.3044V70.3958H172.431V70.2739C171.297 69.3458 171.385 68.4855 171.385 67.1273Z" fill="white"/>
<path d="M182.588 67.8053C181.613 67.8053 180.556 67.5411 179.899 66.7722C179.042 65.8272 178.656 64.2895 178.656 63.0769C178.656 62.1014 178.775 60.9803 179.425 60.1504C179.698 59.8198 180.042 59.5551 180.431 59.3762C180.82 59.1973 181.245 59.1088 181.674 59.1174C182.755 59.1236 183.807 59.463 184.688 60.0895H184.776V56.7024C183.625 56.6143 182.443 56.4043 181.288 56.4043C176.736 56.4043 172.953 58.9175 172.953 63.795C172.953 68.0831 176.472 70.7724 180.549 70.7724C182.306 70.7891 184.044 70.4044 185.629 69.6479L186.574 66.4268H186.486C185.364 67.2852 184 67.7677 182.588 67.8053Z" fill="white"/>
<path d="M198.254 62.4564C197.309 61.8332 196.097 61.5114 195.033 61.1829C194.322 60.9796 193.34 60.7425 193.34 59.828C193.34 59.0287 194.492 58.8796 195.084 58.8796C196.431 58.8879 197.746 59.2893 198.867 60.0346V56.9625C197.369 56.5946 195.834 56.4014 194.292 56.3867C192.754 56.3867 191.159 56.5358 189.801 57.3351C188.443 58.1345 187.613 59.3166 187.613 60.9119C187.613 64.9019 194.678 65.0205 194.678 67.0087C194.678 68.1061 193.408 68.3127 192.578 68.3127C190.719 68.3127 188.914 67.6353 187.346 66.6869L187.996 70.074C189.624 70.4742 191.289 70.7012 192.964 70.7515C196.097 70.7515 200.5 69.8674 200.5 65.9045C200.5 64.4074 199.497 63.2524 198.254 62.4564Z" fill="white"/>
<path d="M103.838 39.4175C106.493 39.8917 110.977 40.0543 113.293 39.9933C113.693 40.1119 112.352 41.5887 110.76 42.7233C102.229 48.7761 89.3835 47.4179 81.3198 46.7879C75.7657 46.3509 67.7359 46.6625 63.2959 49.3316C74.472 40.1864 94.5245 49.3926 106.137 41.88C100.041 41.5261 94.0293 40.2823 88.293 38.188C105.108 38.1677 118.915 35.187 124.124 30.2723C114.706 32.3046 101.037 32.3046 91.5882 31.4341C109.876 30.2046 126.258 21.0018 132.012 11.9447C121.354 18.6308 90.8398 26.218 67.0721 31.2173C40.3817 36.8365 21.0133 46.2764 4.79793 70.4672H4.22559C18.9915 42.7301 40.463 32.7449 83.0944 23.2305C95.9469 20.365 128.178 10.7253 143.079 0.970422C144.2 0.238806 144.613 0.177838 143.98 2.12881C140.417 13.1606 128.913 23.9486 115.556 28.528C121.52 28.0775 127.853 26.8141 132.523 25.0731C132.926 24.9207 132.919 25.2255 132.862 25.4491C130.545 33.3241 117.916 39.0382 103.851 39.3362L103.838 39.4175ZM30.1032 48.4747C38.7358 44.5625 52.8108 41.3617 62.4764 41.3041C56.9087 45.7684 49.3767 47.8006 38.4987 47.7905C48.2523 49.4535 64.3289 48.4442 70.5874 37.8459C53.9115 37.4564 40.314 42.0866 29.9948 48.4747H30.1032ZM41.5129 47.9192C44.2493 48.8201 40.7509 51.1437 37.7367 51.8414C37.5301 51.8889 37.5843 52.0277 37.7367 52.1124C40.2767 53.7145 38.5935 54.9508 35.0274 55.7942C38.9221 55.7942 40.1887 54.8695 40.8288 53.745C40.7869 53.452 40.6718 53.1742 40.4943 52.9374C40.3167 52.7006 40.0823 52.5124 39.8128 52.3902C43.616 51.6281 45.6581 49.8329 45.6717 49.3418C45.6717 49.003 45.333 48.5018 44.4965 48.0682L41.5129 47.9192Z" fill="white"/>
</g>
<defs>
<clipPath id="clip0_285:969">
<rect width="200" height="76" fill="white" transform="translate(0.5 0.5)"/>
</clipPath>
</defs>
</svg>
