<svg width="21" height="15" viewBox="0 0 21 15" fill="none" xmlns="http://www.w3.org/2000/svg">
<path d="M20.4937 2.34699C20.2538 1.42316 19.547 0.695586 18.6495 0.448672C17.0228 0 10.5 0 10.5 0C10.5 0 3.97711 0 2.35037 0.448672C1.45291 0.695625 0.746087 1.42316 0.506188 2.34699C0.0703125 4.02148 0.0703125 7.51516 0.0703125 7.51516C0.0703125 7.51516 0.0703125 11.0088 0.506188 12.6833C0.746087 13.6071 1.45291 14.3044 2.35037 14.5513C3.97711 15 10.5 15 10.5 15C10.5 15 17.0228 15 18.6495 14.5513C19.547 14.3044 20.2538 13.6071 20.4937 12.6833C20.9296 11.0088 20.9296 7.51516 20.9296 7.51516C20.9296 7.51516 20.9296 4.02148 20.4937 2.34699ZM8.3666 10.6871V4.34316L13.8184 7.51523L8.3666 10.6871Z" fill="white"/>
</svg>
