<svg width="80" height="80" viewBox="0 0 80 80" fill="none" xmlns="http://www.w3.org/2000/svg">
  <circle cx="40" cy="40" r="40" fill="#DADADA" />
  <g clip-path="url(#clip0_45_12481)">
    <path
      d="M49.3264 30.4409C49.3264 30.4409 49.0544 26.101 49.1488 24.1696C49.1987 23.1318 49.5317 22.6878 50.342 22.3881C50.8581 22.1994 51.5574 22.4714 52.4176 23.2373C54.2602 24.88 56.2637 27.111 56.2637 27.111L49.3264 30.4409Z"
      fill="#06183D" />
    <path
      d="M55.3639 53.306C55.6136 52.1073 54.8145 50.9973 53.7933 50.6477C52.7277 50.2869 50.419 51.5024 49.6309 51.963C48.6819 52.518 45.9902 54.4216 45.9902 54.4216L47.8772 58.3619C47.8772 58.3619 50.3746 57.3075 52.5834 56.1087C53.7988 55.4483 55.0975 54.6158 55.3694 53.306H55.3639Z"
      fill="white" />
    <path
      d="M48.3829 57.2025C48.3829 58.2514 47.7447 58.7343 46.9566 58.2792C46.1685 57.8241 45.5303 56.6031 45.5303 55.5542C45.5303 54.5053 46.1685 54.0225 46.9566 54.4776C47.7447 54.9326 48.3829 56.1536 48.3829 57.2025Z"
      fill="#B2B2B2" />
    <path
      d="M47.1894 57.796C46.5734 57.4408 46.0739 56.4863 46.0739 55.6649C46.0739 55.2098 46.2293 54.899 46.4735 54.7658C46.1017 54.7936 45.8408 55.1487 45.8408 55.737C45.8408 56.5584 46.3403 57.513 46.9563 57.8682C47.2338 58.0291 47.478 58.0347 47.6723 57.9237C47.528 57.9348 47.3615 57.8959 47.1894 57.796Z"
      fill="#06183D" />
    <path
      d="M47.3334 57.3078C46.8783 57.0469 46.512 56.3421 46.512 55.7372C46.512 55.1988 46.8006 54.9213 47.1891 55.049C47.1169 54.9879 47.0392 54.9324 46.9615 54.888C46.7895 54.7881 46.623 54.7493 46.4787 54.7604C46.2345 54.8936 46.0791 55.2044 46.0791 55.6595C46.0791 56.4808 46.5786 57.4354 47.1946 57.7906C47.3667 57.8905 47.5332 57.9293 47.6775 57.9182C47.8994 57.7961 48.0437 57.5186 48.0659 57.1191C47.9327 57.4021 47.6553 57.4909 47.3334 57.3022V57.3078Z"
      fill="#06183D" />
    <path
      d="M46.5068 55.7372C46.5068 56.3422 46.8731 57.047 47.3282 57.3078C47.6501 57.491 47.9276 57.4022 48.0608 57.1247C48.0608 57.0914 48.0719 57.0581 48.0719 57.0248C48.0719 56.3033 47.6889 55.4875 47.1839 55.0546C46.801 54.927 46.5068 55.2045 46.5068 55.7428V55.7372Z"
      fill="#06183D" />
    <path
      d="M21.9547 33.6152C22.2045 32.4165 21.4053 31.3065 20.3841 30.9569C19.3185 30.5961 17.0098 31.8116 16.2217 32.2722C15.2727 32.8272 12.5811 34.7308 12.5811 34.7308L14.468 38.6711C14.468 38.6711 16.9654 37.6167 19.1742 36.4179C20.3897 35.7575 21.6883 34.925 21.9603 33.6152H21.9547Z"
      fill="#F7F7F7" />
    <path
      d="M14.9727 37.5112C14.9727 38.5601 14.3345 39.0429 13.5464 38.5878C12.7583 38.1328 12.1201 36.9118 12.1201 35.8629C12.1201 34.814 12.7583 34.3311 13.5464 34.7862C14.3345 35.2413 14.9727 36.4623 14.9727 37.5112Z"
      fill="#B2B2B2" />
    <path
      d="M13.7802 38.1056C13.1642 37.7505 12.6647 36.7959 12.6647 35.9745C12.6647 35.5194 12.8201 35.2086 13.0643 35.0754C12.6925 35.1032 12.4316 35.4584 12.4316 36.0467C12.4316 36.868 12.9311 37.8226 13.5472 38.1778C13.8246 38.3387 14.0688 38.3443 14.2631 38.2333C14.1188 38.2444 13.9523 38.2055 13.7802 38.1056Z"
      fill="#06183D" />
    <path
      d="M13.9242 37.6222C13.4691 37.3614 13.1028 36.6565 13.1028 36.0516C13.1028 35.5133 13.3914 35.2358 13.7799 35.3634C13.7077 35.3024 13.63 35.2469 13.5523 35.2025C13.3803 35.1026 13.2138 35.0637 13.0695 35.0748C12.8253 35.208 12.6699 35.5188 12.6699 35.9739C12.6699 36.7953 13.1694 37.7499 13.7854 38.105C13.9575 38.2049 14.124 38.2438 14.2683 38.2327C14.4903 38.1106 14.6346 37.8331 14.6568 37.4335C14.5236 37.7166 14.2461 37.8053 13.9242 37.6167V37.6222Z"
      fill="#06183D" />
    <path
      d="M13.0977 36.0458C13.0977 36.6508 13.4639 37.3556 13.919 37.6164C14.2409 37.8051 14.5184 37.7108 14.6516 37.4333C14.6516 37.4 14.6627 37.3667 14.6627 37.3334C14.6627 36.6119 14.2798 35.7961 13.7747 35.3632C13.3918 35.2356 13.0977 35.5131 13.0977 36.0514V36.0458Z"
      fill="#06183D" />
    <path
      d="M16.0554 23.7478C15.345 23.2317 13.8854 22.3659 13.1306 22.2049C12.3758 22.044 11.5822 22.1383 10.9606 22.8765C10.7553 23.1207 10.3945 23.1928 10.3945 23.1928V24.5525C10.4167 25.4571 10.7775 26.6948 11.5544 28.5595C12.4036 30.6018 23.037 44.0269 23.037 44.0269L34.3975 37.467C34.3975 37.467 17.4928 24.7912 16.0554 23.7478Z"
      fill="#F7F7F7" />
    <path
      d="M23.0486 42.8666C23.0486 42.8666 12.4151 29.4471 11.566 27.4048C10.173 24.0582 10.1008 22.7429 10.9666 21.7162C11.5882 20.9781 12.3763 20.8837 13.1366 21.0447C13.8914 21.2056 15.351 22.0714 16.0614 22.5875C17.4932 23.6309 34.4146 36.3067 34.4146 36.3067L23.0541 42.8666H23.0486Z"
      fill="#06183D" />
    <path
      d="M31.3208 37.8492C30.6509 38.1987 30.0023 38.542 29.3804 38.8764C29.3842 38.878 29.3881 38.8797 29.3919 38.8813C24.5409 41.5105 20.4607 43.9905 18.586 45.6694C13.8243 49.9372 14.5846 53.5613 14.5846 53.5613C14.5846 53.5613 18.4471 54.8488 25.0405 51.7409V51.752C27.8431 50.4978 34.9635 46.3687 41.8842 42.112C41.8831 42.1115 41.882 42.111 41.881 42.1105C48.5732 37.993 55.0708 33.7537 57.2794 31.8836C58.6169 30.7515 59.7213 29.6637 60.6148 28.6869C60.6426 28.4206 60.6814 27.8212 60.3984 27.3106C59.9488 26.5003 58.8111 25.7899 56.2083 26.5392C52.8918 27.4996 42.1224 32.3518 33.5711 36.6918C33.5653 36.6893 33.5596 36.6868 33.5539 36.6842C32.8001 37.0726 32.0542 37.4616 31.3208 37.8492Z"
      fill="white" />
    <path
      d="M60.62 28.6928C60.6034 29.2089 60.5146 30.0248 58.4445 32.1004V32.106C56.4965 34.0595 53.3831 36.7512 50.0032 39.0599C47.972 40.4473 45.9407 41.7793 44.2036 42.8948C43.41 42.7117 42.6386 42.4564 41.8838 42.1178C48.5714 37.9999 55.0702 33.7598 57.2846 31.8895C58.6221 30.7573 59.7265 29.6696 60.62 28.6928Z"
      fill="#F7F7F7" />
    <path
      d="M14.584 53.5726C14.584 53.5726 18.4466 54.5716 25.0399 51.7523V51.7579C27.8481 50.5036 34.9687 46.3746 41.8838 42.1178C42.633 42.4564 43.41 42.7117 44.2036 42.8948C42.4832 43.9937 41.0567 44.8872 40.2075 45.4033C34.1527 49.0884 25.4727 53.8945 20.8331 54.888C16.865 55.7371 14.584 53.5726 14.584 53.5726Z"
      fill="#F7F7F7" />
    <path
      d="M15.4727 49.4267C15.3894 50.1149 16.4661 50.9751 18.1366 51.0528C19.8071 51.1305 21.2334 50.4423 21.2833 51.2082C21.3277 51.8742 20.7395 52.407 18.2476 52.518C15.7724 52.6289 14.79 51.1804 14.79 51.1804C14.79 51.1804 14.9288 50.3646 15.4782 49.4322L15.4727 49.4267Z"
      fill="#06183D" />
    <path
      d="M69.5945 55.6481V54.8989H69.0117C68.4234 54.466 67.4578 53.9387 66.8029 53.6446C64.9937 52.8177 43.0441 43.05 43.0441 43.05L33.2708 48.6942L33.3152 48.4389L31.6836 48.8163V49.6154C31.6836 49.6154 54.9318 55.7535 58.4671 56.2475C64.2555 57.0522 66.5365 57.091 68.318 56.5916C69.2948 56.3196 69.6167 55.9866 69.5945 55.6536V55.6481Z"
      fill="#F7F7F7" />
    <path
      d="M31.6836 48.8054C31.6836 48.8054 54.9318 54.9435 58.4671 55.4375C64.2555 56.2422 66.5365 56.2811 68.318 55.7816C69.6 55.4208 69.761 54.9657 69.4779 54.5273C69.1949 54.0889 67.6964 53.2508 66.8029 52.8402C64.9937 52.0132 43.0441 42.2455 43.0441 42.2455L31.6836 48.8054Z"
      fill="#06183D" />
    <path
      d="M68.1068 33.0657V32.6328L67.7905 32.6772C67.5297 32.4996 67.119 32.2999 66.5362 32.0834C63.6947 31.0234 59.9153 29.8801 59.9153 29.8801C59.9153 29.8801 59.2771 30.3463 57.1348 31.9336C56.7353 32.2277 55.8695 32.7716 55.1536 33.21V33.099L54.0547 33.4376V33.8705C54.0547 33.8705 61.5747 34.0258 64.9212 33.9759C66.7194 33.9481 67.4908 33.7539 68.007 33.2877C68.0791 33.2211 68.1124 33.1545 68.1068 33.0768V33.0657Z"
      fill="white" />
    <path
      d="M54.0605 33.427C54.0605 33.427 61.5806 33.5824 64.9271 33.5324C66.7253 33.5047 67.4967 33.3104 68.0128 32.8442C68.3403 32.5446 67.8685 32.1394 66.5421 31.6455C63.7006 30.5855 59.9212 29.4422 59.9212 29.4422C59.9212 29.4422 59.2829 29.9084 57.1407 31.4956C56.4081 32.0395 54.0661 33.4325 54.0661 33.4325L54.0605 33.427Z"
      fill="#06183D" />
    <path
      d="M58.0243 16.3003L57.5415 16.0284C57.5415 16.0284 57.5304 16.0228 57.5193 16.0173C57.3694 15.9451 57.1419 16.1005 56.8089 16.4446C56.2595 17.0051 55.6046 18.3093 54.6944 21.778C54.0007 24.4086 53.3125 28.3157 53.3125 28.3157L53.8009 28.5932L54.0839 27.9549C54.6611 27.6885 55.4103 27.35 55.76 27.2113C56.2595 27.017 57.7968 26.401 57.7968 26.401C57.7968 26.401 57.769 20.9011 57.7968 18.6312C57.8023 17.9874 57.8023 17.4769 57.7857 17.0828L57.8023 17.0995L58.0299 16.3058L58.0243 16.3003Z"
      fill="white" />
    <path
      d="M57.2962 16.7269C56.7468 17.2874 56.0919 18.5916 55.1817 22.0603C54.488 24.6909 53.7998 28.598 53.7998 28.598C53.7998 28.598 55.6313 27.7377 56.2528 27.4936C56.7523 27.2993 58.2896 26.6833 58.2896 26.6833C58.2896 26.6833 58.2619 21.1834 58.2896 18.9135C58.3174 16.233 58.2175 15.7945 57.3073 16.7269H57.2962Z"
      fill="#DADADA" />
  </g>
  <defs>
    <clipPath id="clip0_45_12481">
      <rect width="59.2" height="42.4506" fill="white" transform="translate(10.4004 16.0002)" />
    </clipPath>
  </defs>
</svg>
